<svg data-v-29081953="" xmlns="http://www.w3.org/2000/svg" viewBox="0 0 300 300"><!----><defs data-v-29081953=""><linearGradient data-v-29081953="" gradientTransform="rotate(25)" id="32126c44-68fd-4a4f-bc8f-dc8c6ec27a02" x1="0%" y1="0%" x2="100%" y2="0%"><stop data-v-29081953="" offset="0%" stop-color="#E0302F" stop-opacity="1"></stop><stop data-v-29081953="" offset="100%" stop-color="#3281DD" stop-opacity="1"></stop></linearGradient></defs><rect data-v-29081953="" fill="url(#32126c44-68fd-4a4f-bc8f-dc8c6ec27a02)" x="0" y="0" width="300px" height="300px" class="logo-background-square"></rect><defs data-v-29081953=""><!----></defs><g data-v-29081953="" id="afa831bf-910b-4046-be68-9a751d786b3b" fill="#ffffff" transform="matrix(3.1313371959248535,0,0,3.1313371959248535,104.37254345292789,121.25432358580156)"><path d="M3.14 10.72L4.10 10.72L5.74 14.35L8.04 14.35L6.12 10.44C7.21 10.14 7.84 9.06 7.84 7.69C7.84 5.80 6.76 4.58 4.84 4.58L1.06 4.58L1.06 14.35L3.14 14.35ZM3.14 9.10L3.14 6.27L4.34 6.27C5.32 6.27 5.66 6.62 5.66 7.48L5.66 7.90C5.66 8.75 5.32 9.10 4.34 9.10ZM12.80 14.52C14.35 14.52 15.33 13.93 15.89 13.24L14.77 12.03C14.32 12.56 13.72 12.92 12.87 12.92C11.76 12.92 11.16 12.29 11.16 11.37L11.16 11.24L16.10 11.24L16.10 10.63C16.10 8.37 14.77 6.96 12.61 6.96C10.44 6.96 9.10 8.40 9.10 10.77C9.10 13.08 10.37 14.52 12.80 14.52ZM12.63 8.44C13.52 8.44 14.07 9.03 14.07 9.97L14.07 10.08L11.16 10.08L11.16 9.97C11.16 9.04 11.73 8.44 12.63 8.44ZM22.23 14.35L24.82 7.13L22.72 7.13L21.78 10.22L21.10 12.63L20.99 12.63L20.30 10.22L19.36 7.13L17.18 7.13L19.77 14.35ZM29.85 6.20C30.77 6.20 31.09 5.77 31.09 5.22L31.09 4.82C31.09 4.26 30.77 3.84 29.85 3.84C28.92 3.84 28.60 4.26 28.60 4.82L28.60 5.22C28.60 5.77 28.92 6.20 29.85 6.20ZM26.52 14.35L33.01 14.35L33.01 12.74L30.88 12.74L30.88 7.13L26.52 7.13L26.52 8.74L28.81 8.74L28.81 12.74L26.52 12.74ZM39.03 14.35L41.62 7.13L39.52 7.13L38.58 10.22L37.90 12.63L37.79 12.63L37.10 10.22L36.16 7.13L33.98 7.13L36.57 14.35ZM46.40 14.52C47.95 14.52 48.93 13.93 49.49 13.24L48.37 12.03C47.92 12.56 47.32 12.92 46.47 12.92C45.36 12.92 44.76 12.29 44.76 11.37L44.76 11.24L49.70 11.24L49.70 10.63C49.70 8.37 48.37 6.96 46.21 6.96C44.04 6.96 42.70 8.40 42.70 10.77C42.70 13.08 43.97 14.52 46.40 14.52ZM46.23 8.44C47.12 8.44 47.67 9.03 47.67 9.97L47.67 10.08L44.76 10.08L44.76 9.97C44.76 9.04 45.33 8.44 46.23 8.44Z"></path></g><defs data-v-29081953=""><!----></defs><g data-v-29081953="" id="2c87c52e-61d9-4b41-a3c8-3815646bc18b" stroke="none" fill="#ffffff" transform="matrix(0.6843659815130616,0,0,0.6843659815130616,33.090235287906694,115.81592000661729)"><path d="M83.1 53.4L50 86.6 37.5 74c2.7-2.7 4.4-6.4 4.4-10.6 0-8.3-6.7-15-15-15-4.1 0-7.8 1.7-10.5 4.3-8.6-9.2-8.4-23.6.6-32.5 9.2-9.2 24-9.1 33.1 0 9.2-9.2 24-9.2 33.1 0 9.1 9.3 9.1 24.1-.1 33.2zM39.4 63.5c0 6.9-5.6 12.5-12.5 12.5s-12.5-5.6-12.5-12.5S19.9 51 26.9 51s12.5 5.6 12.5 12.5zm-7 2.3c-.7-.5-1.6-.4-2.1.3-.8 1.1-2.1 1.7-3.5 1.7-1.2 0-2.3-.5-3.1-1.3.4-.1.8-.3 1-.7.4-.7.2-1.6-.5-2.1l-2.5-1.6c-.1 0-.1-.1-.2-.1h-.1c-.1 0-.1 0-.2-.1H20.9h-.1H20.5c-.4.1-.7.3-.9.7L18 65.2c-.4.7-.2 1.6.5 2.1.2.2.5.2.8.2.4 0 .8-.2 1.1-.5 1.3 2.2 3.7 3.7 6.4 3.7 2.3 0 4.5-1.1 5.9-2.9.5-.5.3-1.5-.3-2zm2.7-6.1c-.6-.4-1.4-.3-1.9.2-1.3-2.3-3.7-3.8-6.4-3.8-2.2 0-4.2 1-5.6 2.6-.5.6-.5 1.6.2 2.1.6.5 1.6.5 2.1-.2.8-1 2-1.5 3.3-1.5 1.3 0 2.4.5 3.2 1.4-.4.1-.8.3-1 .7-.4.7-.2 1.6.5 2.1l2.5 1.6c.2.2.5.2.8.2h.3c.4-.1.7-.3.9-.7l1.6-2.6c.4-.7.2-1.6-.5-2.1z"></path><path d="M83.1 53.4L50 86.6 37.5 74c2.7-2.7 4.4-6.4 4.4-10.6 0-8.3-6.7-15-15-15-4.1 0-7.8 1.7-10.5 4.3-8.6-9.2-8.4-23.6.6-32.5 9.2-9.2 24-9.1 33.1 0 9.2-9.2 24-9.2 33.1 0 9.1 9.3 9.1 24.1-.1 33.2zM39.4 63.5c0 6.9-5.6 12.5-12.5 12.5s-12.5-5.6-12.5-12.5S19.9 51 26.9 51s12.5 5.6 12.5 12.5zm-7 2.3c-.7-.5-1.6-.4-2.1.3-.8 1.1-2.1 1.7-3.5 1.7-1.2 0-2.3-.5-3.1-1.3.4-.1.8-.3 1-.7.4-.7.2-1.6-.5-2.1l-2.5-1.6c-.1 0-.1-.1-.2-.1h-.1c-.1 0-.1 0-.2-.1H20.9h-.1H20.5c-.4.1-.7.3-.9.7L18 65.2c-.4.7-.2 1.6.5 2.1.2.2.5.2.8.2.4 0 .8-.2 1.1-.5 1.3 2.2 3.7 3.7 6.4 3.7 2.3 0 4.5-1.1 5.9-2.9.5-.5.3-1.5-.3-2zm2.7-6.1c-.6-.4-1.4-.3-1.9.2-1.3-2.3-3.7-3.8-6.4-3.8-2.2 0-4.2 1-5.6 2.6-.5.6-.5 1.6.2 2.1.6.5 1.6.5 2.1-.2.8-1 2-1.5 3.3-1.5 1.3 0 2.4.5 3.2 1.4-.4.1-.8.3-1 .7-.4.7-.2 1.6.5 2.1l2.5 1.6c.2.2.5.2.8.2h.3c.4-.1.7-.3.9-.7l1.6-2.6c.4-.7.2-1.6-.5-2.1z"></path></g><!----></svg>