<svg data-v-29081953="" xmlns="http://www.w3.org/2000/svg" viewBox="0 0 300 300"><!----><defs data-v-29081953=""><linearGradient data-v-29081953="" gradientTransform="rotate(25)" id="18432ec3-2e75-4baa-9117-f20b95cf6d50" x1="0%" y1="0%" x2="100%" y2="0%"><stop data-v-29081953="" offset="0%" stop-color="#E0302F" stop-opacity="1"></stop><stop data-v-29081953="" offset="100%" stop-color="#3281DD" stop-opacity="1"></stop></linearGradient></defs><rect data-v-29081953="" fill="url(#18432ec3-2e75-4baa-9117-f20b95cf6d50)" x="0" y="0" width="300px" height="300px" class="logo-background-square"></rect><!----><defs data-v-29081953=""><!----></defs><g data-v-29081953="" id="9d347978-c5a1-4f3a-a5e6-74dea071048a" fill="#ffffff" stroke="none" transform="matrix(2.7528920993200408,0,0,2.7528920993200408,12.205169166902788,12.493042789398949)"><path d="M83.1 53.4L50 86.6 37.5 74c2.7-2.7 4.4-6.4 4.4-10.6 0-8.3-6.7-15-15-15-4.1 0-7.8 1.7-10.5 4.3-8.6-9.2-8.4-23.6.6-32.5 9.2-9.2 24-9.1 33.1 0 9.2-9.2 24-9.2 33.1 0 9.1 9.3 9.1 24.1-.1 33.2zM39.4 63.5c0 6.9-5.6 12.5-12.5 12.5s-12.5-5.6-12.5-12.5S19.9 51 26.9 51s12.5 5.6 12.5 12.5zm-7 2.3c-.7-.5-1.6-.4-2.1.3-.8 1.1-2.1 1.7-3.5 1.7-1.2 0-2.3-.5-3.1-1.3.4-.1.8-.3 1-.7.4-.7.2-1.6-.5-2.1l-2.5-1.6c-.1 0-.1-.1-.2-.1h-.1c-.1 0-.1 0-.2-.1H20.9h-.1H20.5c-.4.1-.7.3-.9.7L18 65.2c-.4.7-.2 1.6.5 2.1.2.2.5.2.8.2.4 0 .8-.2 1.1-.5 1.3 2.2 3.7 3.7 6.4 3.7 2.3 0 4.5-1.1 5.9-2.9.5-.5.3-1.5-.3-2zm2.7-6.1c-.6-.4-1.4-.3-1.9.2-1.3-2.3-3.7-3.8-6.4-3.8-2.2 0-4.2 1-5.6 2.6-.5.6-.5 1.6.2 2.1.6.5 1.6.5 2.1-.2.8-1 2-1.5 3.3-1.5 1.3 0 2.4.5 3.2 1.4-.4.1-.8.3-1 .7-.4.7-.2 1.6.5 2.1l2.5 1.6c.2.2.5.2.8.2h.3c.4-.1.7-.3.9-.7l1.6-2.6c.4-.7.2-1.6-.5-2.1z"></path><path d="M83.1 53.4L50 86.6 37.5 74c2.7-2.7 4.4-6.4 4.4-10.6 0-8.3-6.7-15-15-15-4.1 0-7.8 1.7-10.5 4.3-8.6-9.2-8.4-23.6.6-32.5 9.2-9.2 24-9.1 33.1 0 9.2-9.2 24-9.2 33.1 0 9.1 9.3 9.1 24.1-.1 33.2zM39.4 63.5c0 6.9-5.6 12.5-12.5 12.5s-12.5-5.6-12.5-12.5S19.9 51 26.9 51s12.5 5.6 12.5 12.5zm-7 2.3c-.7-.5-1.6-.4-2.1.3-.8 1.1-2.1 1.7-3.5 1.7-1.2 0-2.3-.5-3.1-1.3.4-.1.8-.3 1-.7.4-.7.2-1.6-.5-2.1l-2.5-1.6c-.1 0-.1-.1-.2-.1h-.1c-.1 0-.1 0-.2-.1H20.9h-.1H20.5c-.4.1-.7.3-.9.7L18 65.2c-.4.7-.2 1.6.5 2.1.2.2.5.2.8.2.4 0 .8-.2 1.1-.5 1.3 2.2 3.7 3.7 6.4 3.7 2.3 0 4.5-1.1 5.9-2.9.5-.5.3-1.5-.3-2zm2.7-6.1c-.6-.4-1.4-.3-1.9.2-1.3-2.3-3.7-3.8-6.4-3.8-2.2 0-4.2 1-5.6 2.6-.5.6-.5 1.6.2 2.1.6.5 1.6.5 2.1-.2.8-1 2-1.5 3.3-1.5 1.3 0 2.4.5 3.2 1.4-.4.1-.8.3-1 .7-.4.7-.2 1.6.5 2.1l2.5 1.6c.2.2.5.2.8.2h.3c.4-.1.7-.3.9-.7l1.6-2.6c.4-.7.2-1.6-.5-2.1z"></path></g><!----></svg>